<svg width="19" height="19" viewBox="0 0 19 19" fill="white" xmlns="http://www.w3.org/2000/svg">
<mask id="path-1-outside-1_937_6978" maskUnits="userSpaceOnUse" x="0" y="0.0371094" width="19" height="19" fill="white">
<rect fill="white" y="0.0371094" width="19" height="19"/>
<path d="M7.12791 1.03711H2.38372C2.01674 1.03711 1.66478 1.18289 1.40528 1.44239C1.14578 1.70189 1 2.05384 1 2.42083V7.16502C1 7.34673 1.03579 7.52666 1.10533 7.69454C1.17487 7.86242 1.27679 8.01497 1.40528 8.14346C1.53377 8.27195 1.68631 8.37387 1.85419 8.44341C2.02207 8.51295 2.20201 8.54874 2.38372 8.54874H7.12791C7.30962 8.54874 7.48955 8.51295 7.65743 8.44341C7.82531 8.37387 7.97786 8.27195 8.10635 8.14346C8.23484 8.01497 8.33676 7.86242 8.4063 7.69454C8.47584 7.52666 8.51163 7.34673 8.51163 7.16502V2.42083C8.51163 2.23912 8.47584 2.05918 8.4063 1.8913C8.33676 1.72342 8.23484 1.57088 8.10635 1.44239C7.97786 1.3139 7.82531 1.21198 7.65743 1.14244C7.48955 1.0729 7.30962 1.03711 7.12791 1.03711ZM7.32558 7.16502C7.32558 7.21744 7.30476 7.26772 7.26768 7.30479C7.23061 7.34186 7.18033 7.36269 7.12791 7.36269H2.38372C2.33129 7.36269 2.28102 7.34186 2.24394 7.30479C2.20687 7.26772 2.18605 7.21744 2.18605 7.16502V2.42083C2.18605 2.3684 2.20687 2.31812 2.24394 2.28105C2.28102 2.24398 2.33129 2.22316 2.38372 2.22316H7.12791C7.18033 2.22316 7.23061 2.24398 7.26768 2.28105C7.30476 2.31812 7.32558 2.3684 7.32558 2.42083V7.16502ZM7.12791 10.5255H2.38372C2.01674 10.5255 1.66478 10.6713 1.40528 10.9308C1.14578 11.1903 1 11.5422 1 11.9092V16.6534C1 17.0204 1.14578 17.3723 1.40528 17.6318C1.66478 17.8913 2.01674 18.0371 2.38372 18.0371H7.12791C7.30962 18.0371 7.48955 18.0013 7.65743 17.9318C7.82531 17.8622 7.97786 17.7603 8.10635 17.6318C8.23484 17.5033 8.33676 17.3508 8.4063 17.1829C8.47584 17.015 8.51163 16.8351 8.51163 16.6534V11.9092C8.51163 11.7275 8.47584 11.5476 8.4063 11.3797C8.33676 11.2118 8.23484 11.0593 8.10635 10.9308C7.97786 10.8023 7.82531 10.7004 7.65743 10.6308C7.48955 10.5613 7.30962 10.5255 7.12791 10.5255ZM7.32558 16.6534C7.32558 16.7058 7.30476 16.7561 7.26768 16.7932C7.23061 16.8302 7.18033 16.8511 7.12791 16.8511H2.38372C2.33129 16.8511 2.28102 16.8302 2.24394 16.7932C2.20687 16.7561 2.18605 16.7058 2.18605 16.6534V11.9092C2.18605 11.8568 2.20687 11.8065 2.24394 11.7694C2.28102 11.7324 2.33129 11.7115 2.38372 11.7115H7.12791C7.18033 11.7115 7.23061 11.7324 7.26768 11.7694C7.30476 11.8065 7.32558 11.8568 7.32558 11.9092V16.6534ZM16.6163 1.03711H11.8721C11.5051 1.03711 11.1532 1.18289 10.8937 1.44239C10.6342 1.70189 10.4884 2.05384 10.4884 2.42083V7.16502C10.4884 7.34673 10.5242 7.52666 10.5937 7.69454C10.6632 7.86242 10.7652 8.01497 10.8937 8.14346C11.0221 8.27195 11.1747 8.37387 11.3426 8.44341C11.5104 8.51295 11.6904 8.54874 11.8721 8.54874H16.6163C16.798 8.54874 16.9779 8.51295 17.1458 8.44341C17.3137 8.37387 17.4662 8.27195 17.5947 8.14346C17.7232 8.01497 17.8251 7.86242 17.8947 7.69454C17.9642 7.52666 18 7.34673 18 7.16502V2.42083C18 2.05384 17.8542 1.70189 17.5947 1.44239C17.3352 1.18289 16.9833 1.03711 16.6163 1.03711ZM16.814 7.16502C16.814 7.21744 16.7931 7.26772 16.7561 7.30479C16.719 7.34186 16.6687 7.36269 16.6163 7.36269H11.8721C11.8197 7.36269 11.7694 7.34186 11.7323 7.30479C11.6952 7.26772 11.6744 7.21744 11.6744 7.16502V2.42083C11.6744 2.3684 11.6952 2.31812 11.7323 2.28105C11.7694 2.24398 11.8197 2.22316 11.8721 2.22316H16.6163C16.6687 2.22316 16.719 2.24398 16.7561 2.28105C16.7931 2.31812 16.814 2.3684 16.814 2.42083V7.16502ZM10.4884 14.2813V11.1185C10.4884 10.9612 10.5509 10.8104 10.6621 10.6992C10.7733 10.588 10.9241 10.5255 11.0814 10.5255C11.2387 10.5255 11.3895 10.588 11.5007 10.6992C11.6119 10.8104 11.6744 10.9612 11.6744 11.1185V14.2813C11.6744 14.4386 11.6119 14.5894 11.5007 14.7006C11.3895 14.8118 11.2387 14.8743 11.0814 14.8743C10.9241 14.8743 10.7733 14.8118 10.6621 14.7006C10.5509 14.5894 10.4884 14.4386 10.4884 14.2813ZM18 12.6999C18 12.8572 17.9375 13.008 17.8263 13.1192C17.7151 13.2304 17.5643 13.2929 17.407 13.2929H14.8372V17.4441C14.8372 17.6014 14.7747 17.7522 14.6635 17.8634C14.5523 17.9746 14.4015 18.0371 14.2442 18.0371H11.0814C10.9241 18.0371 10.7733 17.9746 10.6621 17.8634C10.5509 17.7522 10.4884 17.6014 10.4884 17.4441C10.4884 17.2868 10.5509 17.136 10.6621 17.0248C10.7733 16.9135 10.9241 16.8511 11.0814 16.8511H13.6512V11.1185C13.6512 10.9612 13.7136 10.8104 13.8249 10.6992C13.9361 10.588 14.0869 10.5255 14.2442 10.5255C14.4015 10.5255 14.5523 10.588 14.6635 10.6992C14.7747 10.8104 14.8372 10.9612 14.8372 11.1185V12.1069H17.407C17.5643 12.1069 17.7151 12.1694 17.8263 12.2806C17.9375 12.3918 18 12.5426 18 12.6999ZM18 15.8627V17.4441C18 17.6014 17.9375 17.7522 17.8263 17.8634C17.7151 17.9746 17.5643 18.0371 17.407 18.0371C17.2497 18.0371 17.0989 17.9746 16.9876 17.8634C16.8764 17.7522 16.814 17.6014 16.814 17.4441V15.8627C16.814 15.7054 16.8764 15.5546 16.9876 15.4434C17.0989 15.3321 17.2497 15.2697 17.407 15.2697C17.5643 15.2697 17.7151 15.3321 17.8263 15.4434C17.9375 15.5546 18 15.7054 18 15.8627Z"/>
</mask>
<path d="M7.12791 1.03711H2.38372C2.01674 1.03711 1.66478 1.18289 1.40528 1.44239C1.14578 1.70189 1 2.05384 1 2.42083V7.16502C1 7.34673 1.03579 7.52666 1.10533 7.69454C1.17487 7.86242 1.27679 8.01497 1.40528 8.14346C1.53377 8.27195 1.68631 8.37387 1.85419 8.44341C2.02207 8.51295 2.20201 8.54874 2.38372 8.54874H7.12791C7.30962 8.54874 7.48955 8.51295 7.65743 8.44341C7.82531 8.37387 7.97786 8.27195 8.10635 8.14346C8.23484 8.01497 8.33676 7.86242 8.4063 7.69454C8.47584 7.52666 8.51163 7.34673 8.51163 7.16502V2.42083C8.51163 2.23912 8.47584 2.05918 8.4063 1.8913C8.33676 1.72342 8.23484 1.57088 8.10635 1.44239C7.97786 1.3139 7.82531 1.21198 7.65743 1.14244C7.48955 1.0729 7.30962 1.03711 7.12791 1.03711ZM7.32558 7.16502C7.32558 7.21744 7.30476 7.26772 7.26768 7.30479C7.23061 7.34186 7.18033 7.36269 7.12791 7.36269H2.38372C2.33129 7.36269 2.28102 7.34186 2.24394 7.30479C2.20687 7.26772 2.18605 7.21744 2.18605 7.16502V2.42083C2.18605 2.3684 2.20687 2.31812 2.24394 2.28105C2.28102 2.24398 2.33129 2.22316 2.38372 2.22316H7.12791C7.18033 2.22316 7.23061 2.24398 7.26768 2.28105C7.30476 2.31812 7.32558 2.3684 7.32558 2.42083V7.16502ZM7.12791 10.5255H2.38372C2.01674 10.5255 1.66478 10.6713 1.40528 10.9308C1.14578 11.1903 1 11.5422 1 11.9092V16.6534C1 17.0204 1.14578 17.3723 1.40528 17.6318C1.66478 17.8913 2.01674 18.0371 2.38372 18.0371H7.12791C7.30962 18.0371 7.48955 18.0013 7.65743 17.9318C7.82531 17.8622 7.97786 17.7603 8.10635 17.6318C8.23484 17.5033 8.33676 17.3508 8.4063 17.1829C8.47584 17.015 8.51163 16.8351 8.51163 16.6534V11.9092C8.51163 11.7275 8.47584 11.5476 8.4063 11.3797C8.33676 11.2118 8.23484 11.0593 8.10635 10.9308C7.97786 10.8023 7.82531 10.7004 7.65743 10.6308C7.48955 10.5613 7.30962 10.5255 7.12791 10.5255ZM7.32558 16.6534C7.32558 16.7058 7.30476 16.7561 7.26768 16.7932C7.23061 16.8302 7.18033 16.8511 7.12791 16.8511H2.38372C2.33129 16.8511 2.28102 16.8302 2.24394 16.7932C2.20687 16.7561 2.18605 16.7058 2.18605 16.6534V11.9092C2.18605 11.8568 2.20687 11.8065 2.24394 11.7694C2.28102 11.7324 2.33129 11.7115 2.38372 11.7115H7.12791C7.18033 11.7115 7.23061 11.7324 7.26768 11.7694C7.30476 11.8065 7.32558 11.8568 7.32558 11.9092V16.6534ZM16.6163 1.03711H11.8721C11.5051 1.03711 11.1532 1.18289 10.8937 1.44239C10.6342 1.70189 10.4884 2.05384 10.4884 2.42083V7.16502C10.4884 7.34673 10.5242 7.52666 10.5937 7.69454C10.6632 7.86242 10.7652 8.01497 10.8937 8.14346C11.0221 8.27195 11.1747 8.37387 11.3426 8.44341C11.5104 8.51295 11.6904 8.54874 11.8721 8.54874H16.6163C16.798 8.54874 16.9779 8.51295 17.1458 8.44341C17.3137 8.37387 17.4662 8.27195 17.5947 8.14346C17.7232 8.01497 17.8251 7.86242 17.8947 7.69454C17.9642 7.52666 18 7.34673 18 7.16502V2.42083C18 2.05384 17.8542 1.70189 17.5947 1.44239C17.3352 1.18289 16.9833 1.03711 16.6163 1.03711ZM16.814 7.16502C16.814 7.21744 16.7931 7.26772 16.7561 7.30479C16.719 7.34186 16.6687 7.36269 16.6163 7.36269H11.8721C11.8197 7.36269 11.7694 7.34186 11.7323 7.30479C11.6952 7.26772 11.6744 7.21744 11.6744 7.16502V2.42083C11.6744 2.3684 11.6952 2.31812 11.7323 2.28105C11.7694 2.24398 11.8197 2.22316 11.8721 2.22316H16.6163C16.6687 2.22316 16.719 2.24398 16.7561 2.28105C16.7931 2.31812 16.814 2.3684 16.814 2.42083V7.16502ZM10.4884 14.2813V11.1185C10.4884 10.9612 10.5509 10.8104 10.6621 10.6992C10.7733 10.588 10.9241 10.5255 11.0814 10.5255C11.2387 10.5255 11.3895 10.588 11.5007 10.6992C11.6119 10.8104 11.6744 10.9612 11.6744 11.1185V14.2813C11.6744 14.4386 11.6119 14.5894 11.5007 14.7006C11.3895 14.8118 11.2387 14.8743 11.0814 14.8743C10.9241 14.8743 10.7733 14.8118 10.6621 14.7006C10.5509 14.5894 10.4884 14.4386 10.4884 14.2813ZM18 12.6999C18 12.8572 17.9375 13.008 17.8263 13.1192C17.7151 13.2304 17.5643 13.2929 17.407 13.2929H14.8372V17.4441C14.8372 17.6014 14.7747 17.7522 14.6635 17.8634C14.5523 17.9746 14.4015 18.0371 14.2442 18.0371H11.0814C10.9241 18.0371 10.7733 17.9746 10.6621 17.8634C10.5509 17.7522 10.4884 17.6014 10.4884 17.4441C10.4884 17.2868 10.5509 17.136 10.6621 17.0248C10.7733 16.9135 10.9241 16.8511 11.0814 16.8511H13.6512V11.1185C13.6512 10.9612 13.7136 10.8104 13.8249 10.6992C13.9361 10.588 14.0869 10.5255 14.2442 10.5255C14.4015 10.5255 14.5523 10.588 14.6635 10.6992C14.7747 10.8104 14.8372 10.9612 14.8372 11.1185V12.1069H17.407C17.5643 12.1069 17.7151 12.1694 17.8263 12.2806C17.9375 12.3918 18 12.5426 18 12.6999ZM18 15.8627V17.4441C18 17.6014 17.9375 17.7522 17.8263 17.8634C17.7151 17.9746 17.5643 18.0371 17.407 18.0371C17.2497 18.0371 17.0989 17.9746 16.9876 17.8634C16.8764 17.7522 16.814 17.6014 16.814 17.4441V15.8627C16.814 15.7054 16.8764 15.5546 16.9876 15.4434C17.0989 15.3321 17.2497 15.2697 17.407 15.2697C17.5643 15.2697 17.7151 15.3321 17.8263 15.4434C17.9375 15.5546 18 15.7054 18 15.8627Z" fill="white"/>
<path d="M7.12791 1.03711H2.38372C2.01674 1.03711 1.66478 1.18289 1.40528 1.44239C1.14578 1.70189 1 2.05384 1 2.42083V7.16502C1 7.34673 1.03579 7.52666 1.10533 7.69454C1.17487 7.86242 1.27679 8.01497 1.40528 8.14346C1.53377 8.27195 1.68631 8.37387 1.85419 8.44341C2.02207 8.51295 2.20201 8.54874 2.38372 8.54874H7.12791C7.30962 8.54874 7.48955 8.51295 7.65743 8.44341C7.82531 8.37387 7.97786 8.27195 8.10635 8.14346C8.23484 8.01497 8.33676 7.86242 8.4063 7.69454C8.47584 7.52666 8.51163 7.34673 8.51163 7.16502V2.42083C8.51163 2.23912 8.47584 2.05918 8.4063 1.8913C8.33676 1.72342 8.23484 1.57088 8.10635 1.44239C7.97786 1.3139 7.82531 1.21198 7.65743 1.14244C7.48955 1.0729 7.30962 1.03711 7.12791 1.03711ZM7.32558 7.16502C7.32558 7.21744 7.30476 7.26772 7.26768 7.30479C7.23061 7.34186 7.18033 7.36269 7.12791 7.36269H2.38372C2.33129 7.36269 2.28102 7.34186 2.24394 7.30479C2.20687 7.26772 2.18605 7.21744 2.18605 7.16502V2.42083C2.18605 2.3684 2.20687 2.31812 2.24394 2.28105C2.28102 2.24398 2.33129 2.22316 2.38372 2.22316H7.12791C7.18033 2.22316 7.23061 2.24398 7.26768 2.28105C7.30476 2.31812 7.32558 2.3684 7.32558 2.42083V7.16502ZM7.12791 10.5255H2.38372C2.01674 10.5255 1.66478 10.6713 1.40528 10.9308C1.14578 11.1903 1 11.5422 1 11.9092V16.6534C1 17.0204 1.14578 17.3723 1.40528 17.6318C1.66478 17.8913 2.01674 18.0371 2.38372 18.0371H7.12791C7.30962 18.0371 7.48955 18.0013 7.65743 17.9318C7.82531 17.8622 7.97786 17.7603 8.10635 17.6318C8.23484 17.5033 8.33676 17.3508 8.4063 17.1829C8.47584 17.015 8.51163 16.8351 8.51163 16.6534V11.9092C8.51163 11.7275 8.47584 11.5476 8.4063 11.3797C8.33676 11.2118 8.23484 11.0593 8.10635 10.9308C7.97786 10.8023 7.82531 10.7004 7.65743 10.6308C7.48955 10.5613 7.30962 10.5255 7.12791 10.5255ZM7.32558 16.6534C7.32558 16.7058 7.30476 16.7561 7.26768 16.7932C7.23061 16.8302 7.18033 16.8511 7.12791 16.8511H2.38372C2.33129 16.8511 2.28102 16.8302 2.24394 16.7932C2.20687 16.7561 2.18605 16.7058 2.18605 16.6534V11.9092C2.18605 11.8568 2.20687 11.8065 2.24394 11.7694C2.28102 11.7324 2.33129 11.7115 2.38372 11.7115H7.12791C7.18033 11.7115 7.23061 11.7324 7.26768 11.7694C7.30476 11.8065 7.32558 11.8568 7.32558 11.9092V16.6534ZM16.6163 1.03711H11.8721C11.5051 1.03711 11.1532 1.18289 10.8937 1.44239C10.6342 1.70189 10.4884 2.05384 10.4884 2.42083V7.16502C10.4884 7.34673 10.5242 7.52666 10.5937 7.69454C10.6632 7.86242 10.7652 8.01497 10.8937 8.14346C11.0221 8.27195 11.1747 8.37387 11.3426 8.44341C11.5104 8.51295 11.6904 8.54874 11.8721 8.54874H16.6163C16.798 8.54874 16.9779 8.51295 17.1458 8.44341C17.3137 8.37387 17.4662 8.27195 17.5947 8.14346C17.7232 8.01497 17.8251 7.86242 17.8947 7.69454C17.9642 7.52666 18 7.34673 18 7.16502V2.42083C18 2.05384 17.8542 1.70189 17.5947 1.44239C17.3352 1.18289 16.9833 1.03711 16.6163 1.03711ZM16.814 7.16502C16.814 7.21744 16.7931 7.26772 16.7561 7.30479C16.719 7.34186 16.6687 7.36269 16.6163 7.36269H11.8721C11.8197 7.36269 11.7694 7.34186 11.7323 7.30479C11.6952 7.26772 11.6744 7.21744 11.6744 7.16502V2.42083C11.6744 2.3684 11.6952 2.31812 11.7323 2.28105C11.7694 2.24398 11.8197 2.22316 11.8721 2.22316H16.6163C16.6687 2.22316 16.719 2.24398 16.7561 2.28105C16.7931 2.31812 16.814 2.3684 16.814 2.42083V7.16502ZM10.4884 14.2813V11.1185C10.4884 10.9612 10.5509 10.8104 10.6621 10.6992C10.7733 10.588 10.9241 10.5255 11.0814 10.5255C11.2387 10.5255 11.3895 10.588 11.5007 10.6992C11.6119 10.8104 11.6744 10.9612 11.6744 11.1185V14.2813C11.6744 14.4386 11.6119 14.5894 11.5007 14.7006C11.3895 14.8118 11.2387 14.8743 11.0814 14.8743C10.9241 14.8743 10.7733 14.8118 10.6621 14.7006C10.5509 14.5894 10.4884 14.4386 10.4884 14.2813ZM18 12.6999C18 12.8572 17.9375 13.008 17.8263 13.1192C17.7151 13.2304 17.5643 13.2929 17.407 13.2929H14.8372V17.4441C14.8372 17.6014 14.7747 17.7522 14.6635 17.8634C14.5523 17.9746 14.4015 18.0371 14.2442 18.0371H11.0814C10.9241 18.0371 10.7733 17.9746 10.6621 17.8634C10.5509 17.7522 10.4884 17.6014 10.4884 17.4441C10.4884 17.2868 10.5509 17.136 10.6621 17.0248C10.7733 16.9135 10.9241 16.8511 11.0814 16.8511H13.6512V11.1185C13.6512 10.9612 13.7136 10.8104 13.8249 10.6992C13.9361 10.588 14.0869 10.5255 14.2442 10.5255C14.4015 10.5255 14.5523 10.588 14.6635 10.6992C14.7747 10.8104 14.8372 10.9612 14.8372 11.1185V12.1069H17.407C17.5643 12.1069 17.7151 12.1694 17.8263 12.2806C17.9375 12.3918 18 12.5426 18 12.6999ZM18 15.8627V17.4441C18 17.6014 17.9375 17.7522 17.8263 17.8634C17.7151 17.9746 17.5643 18.0371 17.407 18.0371C17.2497 18.0371 17.0989 17.9746 16.9876 17.8634C16.8764 17.7522 16.814 17.6014 16.814 17.4441V15.8627C16.814 15.7054 16.8764 15.5546 16.9876 15.4434C17.0989 15.3321 17.2497 15.2697 17.407 15.2697C17.5643 15.2697 17.7151 15.3321 17.8263 15.4434C17.9375 15.5546 18 15.7054 18 15.8627Z"/>
</svg>
